<?xml version="1.0" encoding="UTF-8" standalone="no"?>
<!-- Created with Inkscape (http://www.inkscape.org/) -->

<svg
   xmlns:dc="http://purl.org/dc/elements/1.1/"
   xmlns:cc="http://creativecommons.org/ns#"
   xmlns:rdf="http://www.w3.org/1999/02/22-rdf-syntax-ns#"
   xmlns:svg="http://www.w3.org/2000/svg"
   xmlns="http://www.w3.org/2000/svg"
   xmlns:xlink="http://www.w3.org/1999/xlink"
   xmlns:sodipodi="http://sodipodi.sourceforge.net/DTD/sodipodi-0.dtd"
   xmlns:inkscape="http://www.inkscape.org/namespaces/inkscape"
   width="210mm"
   height="297mm"
   viewBox="0 0 744.09448819 1052.3622047"
   id="svg6262"
   version="1.1"
   inkscape:version="0.91 r13725"
   sodipodi:docname="laberinto.svg">
  <defs
     id="defs6264">
    <pattern
       inkscape:stockid="Wavy"
       id="Wavy"
       height="5.1805778"
       width="30.066020"
       patternUnits="userSpaceOnUse"
       inkscape:collect="always">
      <path
         id="path8175"
         d="M 7.597,0.061 C 5.079,-0.187 2.656,0.302 -0.01,1.788 L -0.01,3.061 C 2.773,1.431 5.173,1.052 7.472,1.280 C 9.770,1.508 11.969,2.361 14.253,3.218 C 18.820,4.931 23.804,6.676 30.066,3.061 L 30.062,1.788 C 23.622,5.497 19.246,3.770 14.691,2.061 C 12.413,1.207 10.115,0.311 7.597,0.061 z "
         style="fill:black;stroke:none;" />
    </pattern>
    <symbol
       id="ToiletsWomen">
      <title
         id="title8918">Toilets - Women</title>
      <g
         style="stroke:none"
         id="g8920">
        <circle
           cx="36"
           cy="10"
           r="5"
           id="circle8922" />
        <path
           d="m 35.5,64 a 2.5,2.5 0 0 1 -5,0 l 0,-17 -6.5,0 7,-23.5 -1,0 -4.1,13.4 a 2.1,2.1 0 0 1 -4,-1.2 L 26.5,20.5 A 6.5,6.5 0 0 1 33,16 l 6,0 a 6.5,6.5 0 0 1 6.5,4.5 l 4.6,15.2 a 2.1,2.1 0 0 1 -4,1.2 L 42,23.5 l -1,0 7,23.5 -6.5,0 0,17 a 2.5,2.5 0 0 1 -5,0 l 0,-17 -1,0 z"
           id="path8924" />
      </g>
    </symbol>
    <symbol
       id="DepartingFlights">
      <title
         id="title9620">Departing Flights</title>
      <g
         style="stroke:none"
         id="g9622">
        <path
           d="M 56,11 42,25 12,17 7,22 32,35 22,45 l -8,-1 -4,4 9,5 5,9 4,-4 -1,-8 10,-10 13,25 5,-5 -8,-30 14,-14 a 3.54,3.54 0 0 0 -5,-5 z"
           id="path9624" />
      </g>
    </symbol>
    <pattern
       patternTransform="translate(-61.056836,-118.16421)"
       id="pattern14888"
       xlink:href="#Wavy-5"
       inkscape:collect="always" />
    <pattern
       inkscape:stockid="Wavy"
       id="Wavy-5"
       height="5.1805778"
       width="30.066020"
       patternUnits="userSpaceOnUse"
       inkscape:collect="always">
      <path
         id="path8175-7"
         d="M 7.597,0.061 C 5.079,-0.187 2.656,0.302 -0.01,1.788 L -0.01,3.061 C 2.773,1.431 5.173,1.052 7.472,1.280 C 9.770,1.508 11.969,2.361 14.253,3.218 C 18.820,4.931 23.804,6.676 30.066,3.061 L 30.062,1.788 C 23.622,5.497 19.246,3.770 14.691,2.061 C 12.413,1.207 10.115,0.311 7.597,0.061 z "
         style="fill:black;stroke:none;" />
    </pattern>
    <pattern
       patternTransform="translate(60.273677,-118.65683)"
       id="pattern14913"
       xlink:href="#Wavy-0"
       inkscape:collect="always" />
    <pattern
       inkscape:stockid="Wavy"
       id="Wavy-0"
       height="5.1805778"
       width="30.066020"
       patternUnits="userSpaceOnUse"
       inkscape:collect="always">
      <path
         id="path8175-4"
         d="M 7.597,0.061 C 5.079,-0.187 2.656,0.302 -0.01,1.788 L -0.01,3.061 C 2.773,1.431 5.173,1.052 7.472,1.280 C 9.770,1.508 11.969,2.361 14.253,3.218 C 18.820,4.931 23.804,6.676 30.066,3.061 L 30.062,1.788 C 23.622,5.497 19.246,3.770 14.691,2.061 C 12.413,1.207 10.115,0.311 7.597,0.061 z "
         style="fill:black;stroke:none;" />
    </pattern>
  </defs>
  <sodipodi:namedview
     id="base"
     pagecolor="#ffffff"
     bordercolor="#666666"
     borderopacity="1.0"
     inkscape:pageopacity="0.0"
     inkscape:pageshadow="2"
     inkscape:zoom="1.1934675"
     inkscape:cx="417.899"
     inkscape:cy="605.74814"
     inkscape:document-units="px"
     inkscape:current-layer="layer1"
     showgrid="true"
     inkscape:snap-grids="true"
     inkscape:snap-to-guides="false"
     inkscape:window-width="1920"
     inkscape:window-height="1017"
     inkscape:window-x="-8"
     inkscape:window-y="-8"
     inkscape:window-maximized="1">
    <inkscape:grid
       type="xygrid"
       id="grid6810" />
  </sodipodi:namedview>
  <metadata
     id="metadata6267">
    <rdf:RDF>
      <cc:Work
         rdf:about="">
        <dc:format>image/svg+xml</dc:format>
        <dc:type
           rdf:resource="http://purl.org/dc/dcmitype/StillImage" />
        <dc:title></dc:title>
      </cc:Work>
    </rdf:RDF>
  </metadata>
  <g
     inkscape:label="Capa 1"
     inkscape:groupmode="layer"
     id="layer1">
    <path
       style="fill:none;fill-rule:evenodd;stroke:#000000;stroke-width:4.54760647;stroke-linecap:butt;stroke-linejoin:miter;stroke-miterlimit:4;stroke-dasharray:none;stroke-opacity:1"
       d="m 158.78004,133.82025 181.22731,1.03848 -10e-6,118.92017"
       id="path6812"
       inkscape:connector-curvature="0"
       sodipodi:nodetypes="ccc" />
    <path
       style="fill:none;fill-rule:evenodd;stroke:#000000;stroke-width:4.33350134;stroke-linecap:butt;stroke-linejoin:miter;stroke-miterlimit:4;stroke-dasharray:none;stroke-opacity:1"
       d="m 160,132.87168 c 0,179.49052 0,179.49052 0,179.49052"
       id="path6814"
       inkscape:connector-curvature="0" />
    <path
       style="fill:none;fill-rule:evenodd;stroke:#000000;stroke-width:3.20581126;stroke-linecap:butt;stroke-linejoin:miter;stroke-miterlimit:4;stroke-dasharray:none;stroke-opacity:1"
       d="m 160.07837,372.44408 c 179.58137,0 179.58137,0 179.58137,0 l 0,-60.16875"
       id="path6816"
       inkscape:connector-curvature="0" />
    <path
       style="fill:none;fill-rule:evenodd;stroke:#000000;stroke-width:2.5498426;stroke-linecap:butt;stroke-linejoin:miter;stroke-miterlimit:4;stroke-dasharray:2.54984255, 10.19937019;stroke-dashoffset:0;stroke-opacity:1"
       d="m 160,252.3622 c 178.01305,0 178.01305,0 178.01305,0 l 0,0"
       id="path6818"
       inkscape:connector-curvature="0" />
    <path
       style="fill:none;fill-rule:evenodd;stroke:#000000;stroke-width:2.50942779;stroke-linecap:butt;stroke-linejoin:miter;stroke-miterlimit:4;stroke-dasharray:2.50942786, 10.03771142;stroke-dashoffset:0;stroke-opacity:1"
       d="m 160,311.66242 c 172.41479,0 172.41479,0 172.41479,0"
       id="path6820"
       inkscape:connector-curvature="0" />
    <path
       style="fill:none;fill-rule:evenodd;stroke:#000000;stroke-width:3.24673128;stroke-linecap:butt;stroke-linejoin:miter;stroke-miterlimit:4;stroke-dasharray:3.24673118, 9.74019353;stroke-dashoffset:0;stroke-opacity:1"
       d="m 220,136.22326 c 0,236.13894 0,236.13894 0,236.13894"
       id="path6822"
       inkscape:connector-curvature="0" />
    <path
       style="fill:none;fill-rule:evenodd;stroke:#000000;stroke-width:3.24096584;stroke-linecap:butt;stroke-linejoin:miter;stroke-miterlimit:4;stroke-dasharray:3.24096585, 9.72289755;stroke-dashoffset:0;stroke-opacity:1"
       d="m 280,137.06116 c 0,235.30104 0,235.30104 0,235.30104"
       id="path6824"
       inkscape:connector-curvature="0" />
    <rect
       style="fill:url(#Wavy);fill-opacity:1.0;stroke:#000000;stroke-width:2.83464575;stroke-linejoin:miter;stroke-miterlimit:4;stroke-dasharray:2.83464567, 8.50393700999999960;stroke-dashoffset:0;stroke-opacity:1"
       id="rect6826"
       width="60"
       height="60"
       x="220"
       y="252.3622" />
    <use
       id="use13242"
       style="fill:#000000;stroke:#000000"
       xlink:href="#ToiletsWomen"
       x="0"
       y="0"
       width="100%"
       height="100%"
       transform="translate(98.135747,307.3622)" />
    <use
       id="use13285"
       style="fill:#000000;stroke:#000000"
       xlink:href="#DepartingFlights"
       x="0"
       y="0"
       width="100%"
       height="100%"
       transform="translate(336.7926,245.07564)" />
    <text
       xml:space="preserve"
       style="font-style:normal;font-weight:normal;font-size:40px;line-height:125%;font-family:sans-serif;letter-spacing:0px;word-spacing:0px;fill:#000000;fill-opacity:1;stroke:none;stroke-width:1px;stroke-linecap:butt;stroke-linejoin:miter;stroke-opacity:1"
       x="177.20932"
       y="356.99222"
       id="text13301"
       sodipodi:linespacing="125%"><tspan
         sodipodi:role="line"
         id="tspan13303"
         x="177.20932"
         y="356.99222">1</tspan></text>
    <text
       xml:space="preserve"
       style="font-style:normal;font-weight:normal;font-size:40px;line-height:125%;font-family:sans-serif;letter-spacing:0px;word-spacing:0px;fill:#000000;fill-opacity:1;stroke:none;stroke-width:1px;stroke-linecap:butt;stroke-linejoin:miter;stroke-opacity:1"
       x="237.46049"
       y="356.94339"
       id="text13301-8"
       sodipodi:linespacing="125%"><tspan
         sodipodi:role="line"
         id="tspan13303-2"
         x="237.46049"
         y="356.94339">3</tspan></text>
    <text
       xml:space="preserve"
       style="font-style:normal;font-weight:normal;font-size:40px;line-height:125%;font-family:sans-serif;letter-spacing:0px;word-spacing:0px;fill:#000000;fill-opacity:1;stroke:none;stroke-width:1px;stroke-linecap:butt;stroke-linejoin:miter;stroke-opacity:1"
       x="297.05386"
       y="357.24612"
       id="text13301-4"
       sodipodi:linespacing="125%"><tspan
         sodipodi:role="line"
         id="tspan13303-0"
         x="297.05386"
         y="357.24612">2</tspan></text>
    <text
       xml:space="preserve"
       style="font-style:normal;font-weight:normal;font-size:40px;line-height:125%;font-family:sans-serif;letter-spacing:0px;word-spacing:0px;fill:#000000;fill-opacity:1;stroke:none;stroke-width:1px;stroke-linecap:butt;stroke-linejoin:miter;stroke-opacity:1"
       x="296.74136"
       y="296.6044"
       id="text13301-0"
       sodipodi:linespacing="125%"><tspan
         sodipodi:role="line"
         id="tspan13303-03"
         x="296.74136"
         y="296.6044">1</tspan></text>
    <text
       xml:space="preserve"
       style="font-style:normal;font-weight:normal;font-size:40px;line-height:125%;font-family:sans-serif;letter-spacing:0px;word-spacing:0px;fill:#000000;fill-opacity:1;stroke:none;stroke-width:1px;stroke-linecap:butt;stroke-linejoin:miter;stroke-opacity:1"
       x="177.20932"
       y="296.03885"
       id="text13301-5-8"
       sodipodi:linespacing="125%"><tspan
         sodipodi:role="line"
         id="tspan13303-1-0"
         x="177.20932"
         y="296.03885">1</tspan></text>
    <text
       xml:space="preserve"
       style="font-style:normal;font-weight:normal;font-size:40px;line-height:125%;font-family:sans-serif;letter-spacing:0px;word-spacing:0px;fill:#000000;fill-opacity:1;stroke:none;stroke-width:1px;stroke-linecap:butt;stroke-linejoin:miter;stroke-opacity:1"
       x="177.52182"
       y="237.17422"
       id="text13393"
       sodipodi:linespacing="125%"><tspan
         sodipodi:role="line"
         id="tspan13395"
         x="177.52182"
         y="237.17422">2</tspan></text>
    <text
       xml:space="preserve"
       style="font-style:normal;font-weight:normal;font-size:40px;line-height:125%;font-family:sans-serif;letter-spacing:0px;word-spacing:0px;fill:#000000;fill-opacity:1;stroke:none;stroke-width:1px;stroke-linecap:butt;stroke-linejoin:miter;stroke-opacity:1"
       x="237.00151"
       y="236.92032"
       id="text13397"
       sodipodi:linespacing="125%"><tspan
         sodipodi:role="line"
         id="tspan13399"
         x="237.00151"
         y="236.92032">1</tspan></text>
    <text
       xml:space="preserve"
       style="font-style:normal;font-weight:normal;font-size:40px;line-height:125%;font-family:sans-serif;letter-spacing:0px;word-spacing:0px;fill:#000000;fill-opacity:1;stroke:none;stroke-width:1px;stroke-linecap:butt;stroke-linejoin:miter;stroke-opacity:1"
       x="296.74136"
       y="236.92032"
       id="text13401"
       sodipodi:linespacing="125%"><tspan
         sodipodi:role="line"
         id="tspan13403"
         x="296.74136"
         y="236.92032">1</tspan></text>
    <path
       style="fill:none;fill-rule:evenodd;stroke:#000000;stroke-width:2.5498426;stroke-linecap:butt;stroke-linejoin:miter;stroke-miterlimit:4;stroke-dasharray:2.54984255, 10.19937019;stroke-dashoffset:0;stroke-opacity:1"
       d="m 160.45475,192.87168 c 178.01305,0 178.01305,0 178.01305,0 l 0,0"
       id="path6818-0"
       inkscape:connector-curvature="0" />
    <rect
       style="fill:url(#pattern14888);fill-opacity:1;stroke:#000000;stroke-width:2.83464575;stroke-linejoin:miter;stroke-miterlimit:4;stroke-dasharray:2.83464567, 8.50393701;stroke-dashoffset:0;stroke-opacity:1"
       id="rect6826-8"
       width="60"
       height="60"
       x="158.94316"
       y="134.198" />
    <rect
       style="fill:url(#pattern14913);fill-opacity:1;stroke:#000000;stroke-width:2.83464575;stroke-linejoin:miter;stroke-miterlimit:4;stroke-dasharray:2.83464567, 8.50393701;stroke-dashoffset:0;stroke-opacity:1"
       id="rect6826-3"
       width="60"
       height="60"
       x="280.27368"
       y="133.70537" />
    <text
       xml:space="preserve"
       style="font-style:normal;font-weight:normal;font-size:40px;line-height:125%;font-family:sans-serif;letter-spacing:0px;word-spacing:0px;fill:#000000;fill-opacity:1;stroke:none;stroke-width:1px;stroke-linecap:butt;stroke-linejoin:miter;stroke-opacity:1"
       x="237.00151"
       y="178.2677"
       id="text13397-1"
       sodipodi:linespacing="125%"><tspan
         sodipodi:role="line"
         id="tspan13399-3"
         x="237.00151"
         y="178.2677">1</tspan></text>
  </g>
</svg>
